<svg width="627" height="642" xmlns="http://www.w3.org/2000/svg" xmlns:xlink="http://www.w3.org/1999/xlink" xml:space="preserve" overflow="hidden"><g transform="translate(-208 -1629)"><path d="M526.661 1748.57 621.044 1803.13 610.722 1820.98 516.339 1766.43ZM622.437 1780.11 660.524 1837.86 591.472 1833.68Z" fill="#06466E"/><path d="M670.812 1837.5 670.813 1946.66 650.188 1946.66 650.187 1837.5ZM691.438 1936.35 660.5 1998.22 629.563 1936.35Z" fill="#06466E"/><path d="M5.16083-8.92824 99.5436 45.6282 89.222 63.4847-5.16083 8.92824ZM100.937 22.6109 139.024 80.3606 69.9721 76.1804Z" fill="#06466E" transform="matrix(-1 0 0 1 660.524 1998.5)"/><path d="M516.363 2087.79 421.981 2033.23 432.302 2015.38 526.685 2069.93ZM420.587 2056.25 382.5 1998.5 451.552 2002.68Z" fill="#06466E"/><path d="M10.3125-2.31563e-05 10.3127 109.159-10.3123 109.159-10.3125 2.31563e-05ZM30.9377 98.8462 0.000360892 160.721-30.9373 98.8463Z" fill="#06466E" transform="matrix(1 0 0 -1 381.5 1998.22)"/><path d="M5.16083-8.92824 99.5436 45.6282 89.222 63.4847-5.16083 8.92824ZM100.937 22.6109 139.024 80.3606 69.9721 76.1804Z" fill="#06466E" transform="matrix(1 0 0 -1 382.5 1837.86)"/><path d="M10.3125-2.57292e-05 10.3127 93.0864-10.3123 93.0864-10.3125 2.57292e-05ZM30.9377 82.7738 0.000360892 144.649-30.9373 82.774Z" fill="#06466E" transform="matrix(1 0 0 -1 630.5 1982.15)"/><path d="M420.653 1970.57 501.354 2017.13 491.047 2034.99 410.347 1988.43ZM502.728 1994.11 540.863 2051.82 471.808 2047.7Z" fill="#06466E"/><path d="M5.15338-8.93254 85.8535 37.6252 75.5467 55.4902-5.15338 8.93254ZM87.2277 14.6067 125.363 72.3246 56.3074 68.202Z" fill="#06466E" transform="matrix(-1 0 0 1 529.863 1790.5)"/><path d="M531.812 1629.5 531.813 1686.3 511.188 1686.3 511.187 1629.5ZM552.438 1675.99 521.5 1737.86 490.563 1675.99Z" fill="#BB1109"/><path d="M531.812 2098.5 531.813 2155.3 511.188 2155.3 511.187 2098.5ZM552.438 2144.99 521.5 2206.86 490.563 2144.99Z" fill="#BB1109"/><path d="M5.15337-8.93255 54.4056 19.4821 44.0989 37.3472-5.15337 8.93255ZM55.7798-3.53637 93.915 54.1815 24.8596 50.0589Z" fill="#BB1109" transform="matrix(-1 0 0 1 771.415 1773.5)"/><path d="M275.653 1764.57 324.906 1792.98 314.599 1810.85 265.347 1782.43ZM326.28 1769.96 364.415 1827.68 295.36 1823.56Z" fill="#BB1109"/><path d="M5.15337-8.93255 54.4056 19.4821 44.0989 37.3472-5.15337 8.93255ZM55.7798-3.53637 93.915 54.1815 24.8596 50.0589Z" fill="#BB1109" transform="matrix(-1 0 0 1 365.415 2008.5)"/><path d="M682.653 1999.57 731.906 2027.98 721.599 2045.85 672.347 2017.43ZM733.28 2004.96 771.415 2062.68 702.36 2058.56Z" fill="#BB1109"/></g></svg>